<svg xmlns="http://www.w3.org/2000/svg" enable-background="new 0 0 1080 1080" viewBox="0 0 1080 1080" id="business-agreement"><path fill="#ffbe55" d="M820.78 615.83c-4.68 0-9.39-.27-14.02-.81a7.862 7.862 0 01-6.94-8.26c.61-10.81-5.66-20.87-15.6-25.03-9.47-3.97-21.82-1.19-28.75 6.47-2.8 3.09-7.53 3.46-10.76.85-7.14-5.75-13.62-12.3-19.26-19.48-2.53-3.21-2.15-7.89.86-10.65 7.89-7.23 10.48-18.69 6.45-28.52-3.99-9.71-13.54-16.06-23.71-15.8-3.95 0-8.63-2.86-9.09-6.96-1.03-9.24-1.02-18.56.05-27.68.51-4.23 3.87-7.08 8.15-6.94 11.27 0 21.15-6.12 25.13-15.59 4.17-9.94 1.58-21.5-6.45-28.77-3.07-2.8-3.44-7.52-.84-10.75 5.75-7.18 12.38-13.73 19.69-19.47 3.23-2.52 7.91-2.12 10.67.9 6.87 7.55 19.14 10.35 28.55 6.5 9.82-4.02 16.16-13.91 15.79-24.61-.14-4.09 2.94-7.64 7-8.09a121.7 121.7 0 0127.38.07c4.14.48 7.19 4.11 6.94 8.26-.61 10.8 5.65 20.86 15.58 25.04 9.49 3.96 21.86 1.18 28.76-6.46 2.79-3.09 7.51-3.47 10.75-.87 7.1 5.68 13.58 12.24 19.29 19.48 2.54 3.22 2.16 7.9-.86 10.66-7.88 7.23-10.47 18.69-6.45 28.52 3.93 9.6 13.31 15.8 23.89 15.8 3.84 0 8.44 2.86 8.9 6.97 1.03 9.24 1.02 18.56-.05 27.68-.49 4.15-4.21 7.27-8.3 6.93l-1.43-.04c-10.16 0-19.65 6.28-23.56 15.63-4.17 9.93-1.57 21.49 6.46 28.77 3.08 2.79 3.45 7.51.85 10.75a121.688 121.688 0 01-19.69 19.47c-3.29 2.54-7.87 2.16-10.67-.89-6.88-7.55-19.16-10.35-28.57-6.5-9.82 4.02-16.16 13.91-15.78 24.6.14 4.09-2.94 7.65-7 8.1-4.42.47-8.91.72-13.36.72zm-45.82-38.21c3.51 0 6.98.64 10.15 1.97 10.85 4.54 17.69 15.51 17.02 27.3a5.55 5.55 0 004.89 5.83 119.43 119.43 0 0026.86.07c2.87-.32 5.04-2.83 4.94-5.71-.42-11.65 6.5-22.43 17.21-26.82 10.27-4.19 23.66-1.15 31.15 7.09 1.97 2.15 5.21 2.42 7.53.62 7.13-5.59 13.63-12.02 19.31-19.09a5.536 5.536 0 00-.6-7.58c-8.76-7.94-11.59-20.55-7.05-31.38 4.28-10.2 14.62-17.05 25.73-17.05l1.52.04c2.93.23 5.53-1.96 5.88-4.89 1.05-8.95 1.07-18.09.05-27.15-.31-2.76-3.8-4.91-6.6-4.91-11.52 0-21.74-6.77-26.04-17.24-4.38-10.73-1.56-23.23 7.03-31.11 2.13-1.95 2.4-5.25.61-7.52-5.59-7.1-11.96-13.53-18.91-19.1a5.547 5.547 0 00-7.58.61c-7.53 8.34-21.02 11.37-31.37 7.05-10.84-4.56-17.66-15.53-17-27.31a5.55 5.55 0 00-4.89-5.83c-8.93-1.03-17.97-1.06-26.86-.07-2.87.32-5.04 2.82-4.94 5.71.41 11.66-6.51 22.44-17.23 26.83-10.27 4.19-23.65 1.15-31.14-7.09-1.94-2.13-5.25-2.41-7.53-.63a118.639 118.639 0 00-19.31 19.09 5.556 5.556 0 00.6 7.58c8.75 7.93 11.58 20.54 7.03 31.39-4.34 10.33-15.05 17.01-27.3 17.01-3.13-.09-5.45 1.87-5.81 4.9-1.05 8.95-1.06 18.08-.05 27.15.31 2.76 3.88 4.9 6.76 4.9 11.13-.29 21.52 6.64 25.88 17.24 4.4 10.72 1.57 23.22-7.03 31.11-2.12 1.95-2.39 5.25-.61 7.51a118.96 118.96 0 0018.89 19.11c2.28 1.84 5.62 1.57 7.59-.6 5.24-5.8 13.31-9.03 21.22-9.03zm46.15-41.88c-22.81 0-41.37-18.56-41.37-41.37S798.3 453 821.11 453s41.37 18.56 41.37 41.37-18.56 41.37-41.37 41.37zm0-80.43c-21.54 0-39.06 17.52-39.06 39.06s17.52 39.06 39.06 39.06c21.53 0 39.05-17.52 39.05-39.06s-17.51-39.06-39.05-39.06zM308.07 771.82c-5.24 2.33-10.67 4.38-16.13 6.08-4.87 1.53-10.1-1.02-11.9-5.8-4.71-12.43-16.76-20.58-29.98-20.29-12.6.27-25.07 9.55-29.02 21.6-1.6 4.86-6.72 7.63-11.65 6.32-10.87-2.88-21.41-7-31.31-12.25-4.44-2.33-6.35-7.77-4.35-12.38 5.24-12.05 2.43-26.2-6.99-35.21-9.32-8.9-23.2-11.26-34.47-5.9-4.43 1.97-11.1 1.1-13.66-3.27-5.77-9.85-10.4-20.31-13.75-31.07-1.54-4.99.81-9.88 5.68-11.85 12.64-5.62 20.67-17.41 20.41-30.02-.28-13.23-8.96-24.91-21.59-29.05-4.84-1.6-7.61-6.71-6.31-11.63 2.87-10.92 7.03-21.57 12.37-31.66 2.37-4.43 7.82-6.33 12.41-4.32 11.47 5.04 26.63 2.06 35.26-6.95 9.01-9.41 11.19-23.67 5.43-35.48-2.19-4.52-.52-10.04 3.82-12.57 9.66-5.65 20.01-10.21 30.75-13.58 4.88-1.52 10.11 1.03 11.9 5.8 4.7 12.42 16.74 20.58 29.96 20.31 12.62-.29 25.1-9.58 29.03-21.59 1.59-4.85 6.69-7.63 11.62-6.33 10.79 2.83 21.34 6.95 31.34 12.22 4.45 2.34 6.36 7.78 4.35 12.39-5.23 12.03-2.42 26.18 6.99 35.2 9.2 8.8 22.81 11.08 34.68 5.8 4.31-1.92 10.89-1 13.46 3.37 5.77 9.85 10.4 20.3 13.75 31.07 1.52 4.9-1.1 10.25-5.85 11.91l-1.62.67c-11.4 5.07-18.9 16.85-18.63 29.29.28 13.22 8.96 24.89 21.6 29.04 4.85 1.59 7.62 6.7 6.31 11.63-2.9 10.98-7.06 21.63-12.37 31.66-2.42 4.49-7.75 6.34-12.41 4.32-11.48-5.04-26.65-2.05-35.28 6.95-9.01 9.41-11.19 23.66-5.42 35.45 2.2 4.52.52 10.04-3.81 12.57-4.71 2.81-9.63 5.33-14.62 7.55zm-70.45-20c3.93-1.75 8.14-2.77 12.37-2.86 14.43-.32 27.57 8.57 32.71 22.13a6.79 6.79 0 008.39 4.09c10.46-3.26 20.69-7.78 30.16-13.32 3.06-1.78 4.24-5.68 2.69-8.87-6.29-12.86-3.9-28.4 5.93-38.67 9.42-9.82 25.96-13.09 38.47-7.59 3.28 1.42 7.05.11 8.76-3.06 5.21-9.83 9.29-20.28 12.13-31.04a6.8 6.8 0 00-4.45-8.2c-13.78-4.53-23.25-17.26-23.56-31.68-.29-13.57 7.89-26.42 20.35-31.96l1.73-.72c3.4-1.2 5.22-4.96 4.15-8.41a146.766 146.766 0 00-13.49-30.48c-1.73-2.94-6.71-3.61-9.85-2.21-12.93 5.75-27.76 3.26-37.8-6.35-10.27-9.84-13.34-25.27-7.63-38.39 1.42-3.25.07-7.08-3.07-8.74-9.81-5.18-20.16-9.21-30.74-11.99a6.787 6.787 0 00-8.19 4.47c-4.29 13.11-17.9 23.23-31.67 23.55-14.43.29-27.56-8.61-32.68-22.15-1.26-3.37-4.95-5.17-8.39-4.09-10.54 3.3-20.68 7.78-30.16 13.32-3.06 1.79-4.24 5.68-2.69 8.87 6.28 12.87 3.89 28.42-5.94 38.69-9.42 9.82-25.96 13.08-38.46 7.58-3.24-1.42-7.09-.08-8.76 3.05-5.24 9.89-9.32 20.33-12.13 31.05-.92 3.47 1.04 7.08 4.45 8.21 13.77 4.52 23.23 17.26 23.54 31.7.29 13.75-8.4 26.58-22.13 32.69-3.55 1.45-5.18 4.81-4.08 8.39 3.29 10.55 7.83 20.81 13.49 30.48 1.72 2.94 6.8 3.56 10.02 2.12 12.34-5.88 27.45-3.29 37.62 6.43 10.28 9.83 13.35 25.26 7.63 38.39-1.41 3.25-.06 7.08 3.07 8.73 9.72 5.14 20.05 9.18 30.72 12.01 3.48.92 7.08-1.04 8.21-4.46 2.97-9.11 10.42-16.77 19.28-20.71zm30.87-69.99c-25.59 11.38-55.66-.18-67.04-25.76-11.38-25.59.18-55.66 25.76-67.04 25.59-11.38 55.66.18 67.04 25.76 11.38 25.58-.17 55.66-25.76 67.04zm-40.12-90.21c-24.15 10.74-35.06 39.13-24.32 63.28s39.13 35.06 63.28 24.32c24.15-10.74 35.06-39.13 24.32-63.28-10.74-24.15-39.12-35.06-63.28-24.32z"></path><path fill="#f7f7f7" d="M269.78 142.97h540.43v794.07H269.78z"></path><path fill="#fff" d="M299.95 176.29h480.1v727.43h-480.1z"></path><path fill="#ffbe55" d="M740.05 344.62h-400.1c-6.6 0-12-5.4-12-12V250.9c0-6.6 5.4-12 12-12h400.11c6.6 0 12 5.4 12 12v81.72c-.01 6.6-5.41 12-12.01 12zM462.51 385.38H335.73c-4.28 0-7.78-3.5-7.78-7.78s3.5-7.78 7.78-7.78h126.78c4.28 0 7.78 3.5 7.78 7.78s-3.5 7.78-7.78 7.78zM744.27 430.31H335.73c-4.28 0-7.78-3.5-7.78-7.78s3.5-7.78 7.78-7.78h408.54c4.28 0 7.78 3.5 7.78 7.78 0 4.27-3.5 7.78-7.78 7.78zM744.27 466.1H335.73c-4.28 0-7.78-3.5-7.78-7.78s3.5-7.78 7.78-7.78h408.54c4.28 0 7.78 3.5 7.78 7.78s-3.5 7.78-7.78 7.78zM744.27 501.89H335.73c-4.28 0-7.78-3.5-7.78-7.78s3.5-7.78 7.78-7.78h408.54c4.28 0 7.78 3.5 7.78 7.78s-3.5 7.78-7.78 7.78zM744.27 537.69H335.73c-4.28 0-7.78-3.5-7.78-7.78s3.5-7.78 7.78-7.78h408.54c4.28 0 7.78 3.5 7.78 7.78s-3.5 7.78-7.78 7.78zM744.27 573.48H335.73c-4.28 0-7.78-3.5-7.78-7.78s3.5-7.78 7.78-7.78h408.54c4.28 0 7.78 3.5 7.78 7.78s-3.5 7.78-7.78 7.78zM744.27 609.28H335.73c-4.28 0-7.78-3.5-7.78-7.78s3.5-7.78 7.78-7.78h408.54c4.28 0 7.78 3.5 7.78 7.78s-3.5 7.78-7.78 7.78zM744.27 645.07H335.73c-4.28 0-7.78-3.5-7.78-7.78s3.5-7.78 7.78-7.78h408.54c4.28 0 7.78 3.5 7.78 7.78s-3.5 7.78-7.78 7.78zM744.27 680.87H335.73c-4.28 0-7.78-3.5-7.78-7.78s3.5-7.78 7.78-7.78h408.54c4.28 0 7.78 3.5 7.78 7.78 0 4.27-3.5 7.78-7.78 7.78zM744.27 716.66H335.73c-4.28 0-7.78-3.5-7.78-7.78s3.5-7.78 7.78-7.78h408.54c4.28 0 7.78 3.5 7.78 7.78s-3.5 7.78-7.78 7.78zM566.87 752.46H335.73c-4.28 0-7.78-3.5-7.78-7.78s3.5-7.78 7.78-7.78h231.14c4.28 0 7.78 3.5 7.78 7.78 0 4.27-3.5 7.78-7.78 7.78z" opacity=".1"></path><circle cx="693.95" cy="819.23" r="62.77" fill="#ffbe55"></circle><circle cx="699.2" cy="813.34" r="62.77" fill="none" stroke="#ffbe55" stroke-miterlimit="10"></circle><path fill="#f2f2f2" d="M1029.08 976.99H62.92c-5.21 0-9.47-4.26-9.47-9.47v-36.24c0-5.21 4.26-9.47 9.47-9.47h966.15c5.21 0 9.47 4.26 9.47 9.47v36.24c.01 5.2-4.25 9.47-9.46 9.47z"></path><path fill="#fcd2b1" d="m461.75 606.27 2.47 21.58s14.98.2 20.74-6.41c-1.05-3.98-3.73-7-3.73-7s1.42.28 6.49-1.05c-3.28-2.49-18.77-11.26-18.77-11.26l-7.2 4.14z"></path><path fill="#fcd2b1" d="M488.49 618.52s-3.06-8.07-6.23-7.25-15.34 11.24-11.07 15.41c4.74 4.63 3.95 8.96 3.95 8.96s14.91-6.1 13.35-17.12z"></path><path fill="#9acff7" d="M729.32 677.57h-46.79c-2.42 0-4.38-1.96-4.38-4.38v-27.32c0-2.42 1.97-4.38 4.38-4.38h46.79c2.42 0 4.38 1.97 4.38 4.38v27.32c0 2.42-1.97 4.38-4.38 4.38zm-45.17-6h43.55v-24.08h-43.55v24.08z"></path><path fill="#cce9ff" d="M753.94 663.99v53.79c0 2.45-2 4.45-4.45 4.45h-87.14c-2.45 0-4.45-2-4.45-4.45v-53.79c0-2.45 2-4.45 4.45-4.45h87.14c2.45 0 4.45 2 4.45 4.45z"></path><path fill="#9acff7" d="M753.94 663.99v26.9H657.9v-26.9c0-2.45 2-4.45 4.45-4.45h87.14c2.45 0 4.45 2 4.45 4.45z"></path><path fill="#2a94f4" d="M693.95 686.85h23.94v12.36h-23.94z"></path><path fill="#0d517f" d="M595.3 613.87 584.34 932.6h22.82s34-148.9 17.91-173.88c14.95-45.97 38.59-143.19 38.59-143.19l-68.36-1.66z"></path><path fill="#0e538c" d="m601.85 615.53 16.12 33.37 65.17 290.12h22.78s-.18-146.79-24.78-171.87c-2.9-54.11 1.2-125.5-10.49-162.4-46.65-10.49-68.8 10.78-68.8 10.78z"></path><path fill="#0b3a54" d="M619.71 465.1c-18.9 32.87-49.15 87.24-83.26 104.55 2.05 7.45 6.42 14.13 6.42 14.13s53.83-19.24 71.09-46.36c17.26-27.12 5.75-72.32 5.75-72.32z"></path><path fill="#fcd2b1" d="M705.34 625.77c-3.56 2.08-11.38 29.66-11.38 29.66s14.16 3.1 22.49-3.84c5.27-16.38-5.55-33.04-5.55-33.04l-5.56 7.22zM629.17 402.97c-.5 5.56-4.09 24.86-4.09 24.86l38.59-19.62-1.84-4.95-10.02-20.89s-9.72.33-10.7 0c-.99-.33-11.94 20.6-11.94 20.6z"></path><path fill="#0e538c" d="M670.41 321.81c9.72 17.63 21.88 6.08 14.28 27.65 2.38 3.65 15.5 11.55-11.24 38.59-8.51 13.68-11.63 15.19-11.63 15.19s-6.15-8.89-10.02-16.15l-18.16-54.96 36.77-10.32z"></path><path fill="#ffe3ca" d="M613.86 341.69s-19.82 16.71-8.55 62.97c15.94 2.33 30.71-3.89 30.71-3.89l15.78-13.66s-3.34-49.31-20.06-51.25c-16.71-1.95-17.88 5.83-17.88 5.83z"></path><path fill="#0e538c" d="M634.25 344.6c-12.16.61-43.53-12.16-32.4-26.13s22.38 4.25 29.97 1.52c7.6-2.74 28.87-15.8 38.59 1.82 0 0 5.47 21.27-36.16 22.79z"></path><ellipse cx="651.26" cy="366.06" fill="#ffe3ca" rx="10.16" ry="6.64" transform="rotate(-54.344 651.306 366.076)"></ellipse><path fill="#0e538c" d="M633.64 339.67c-1.73 14.27-.88 22.28 1.43 24.63 1.53 3.52 2.53 9.97 2.53 9.97h5.85s8.23-16.5 8.35-21.78c.11-5.28-2.49-16.95-2.49-16.95l-15.67 4.13z"></path><path fill="#0b4870" d="M670.65 427.83v-24.57s-50.83 18.16-53.7 24.57c-2.87 6.41-26.4 73.11-26.4 73.11s-.09 149.35.08 154.49c9.31-11.99 36.19-36.26 36.19-36.26L690 655.43s-20.52-77.89-21.44-83.2c-.92-5.31 12.57-58.93 12.57-58.93l-10.48-85.47z"></path><path fill="#125d87" d="M667.95 430.6c-22.71 2.31-31.51 10.65-31.51 19.92 14.83 32.9 73.21 88.22 65.34 177.33 7.41.6 17.61 0 17.61 0s33.35-112.45-51.44-197.25z"></path><path fill="#edbc9a" d="M543.5 575.96c-.21-.14-.41-.27-.6-.41-3.64-2.48-5.04-3.91-6.45-5.91-1.48-2.1-7.62-5.97-10.58-3.12-2.96 2.84-3.23 8.42-2.53 10.52.71 2.1-.2 11.08 1.28 12.79 1.48 1.71 6.94 4.89 11.49 4.43 4.55-.45 7.39-5.34 8.41-9.55 1.03-4.2-1.02-8.75-1.02-8.75z"></path><path fill="#0b4870" d="m584.34 933.16-51.64 22.53h76.13l-1.66-22.53zM682.44 933.16l-51.65 22.53h76.13l-1.66-22.53z"></path><path fill="#ffbe55" d="M805.16 211.86H679.39c-14.03 0-25.5 11.48-25.5 25.5v31.23c0 14.03 11.48 25.5 25.5 25.5h6.93l-12.94 22.15 31.12-22.15h100.66c14.03 0 25.5-11.48 25.5-25.5v-31.23c0-14.03-11.47-25.5-25.5-25.5zM655.49 99.87h-60.83c-29.49 0-53.61 24.13-53.61 53.61 0 29.31 23.83 53.3 53.07 53.6 13.68 8.79 30.96 19.7 30.96 19.7l-10.42-19.69h40.84c29.49 0 53.61-24.13 53.61-53.61s-24.13-53.61-53.62-53.61z"></path><path fill="#0e538c" d="M434.58 350.07c-7.18-11.05-15.79-23.1-28.77-25.36-7.95-1.39-16.04 1.28-23.4 4.59-12.89 5.79-25.51 14.47-30.78 27.58-5.14 12.8-2.34 27.19-.52 40.86 1.82 13.67 2.13 28.98-6.65 39.61-9.44 11.41-25.87 13.42-39 20.27-12.67 6.62-22.59 18.34-26.99 31.95-2.21 6.82-3.02 14.46-.18 21.04 3.1 7.16 10 11.94 17.09 15.2 30.18 13.87 67.92 5.1 92.42-17.33s36.5-56.38 36.84-89.59c.12-11.82-1.1-23.84 1.71-35.32 1.57-6.42 4.36-12.49 5.8-18.94l2.43-14.56z"></path><path fill="#1989dd" d="M391.25 480.41c21.15 50.81 46.16 98.59 70.79 130.21 9.59.53 15.16-4.89 15.16-4.89s-52.58-92.37-48.61-120.77c3.98-28.41-37.34-4.55-37.34-4.55z"></path><path fill="#cce9ff" d="M432.37 566.23h55.9v77.2h-55.9z" transform="rotate(30.56 460.372 604.88)"></path><path fill="#fff" d="M435.9 569.34h49.55v69.8H435.9z" transform="rotate(30.56 460.721 604.29)"></path><path fill="#0e538c" d="m470.86 563.06 20.95 12.37a2.43 2.43 0 0 1 .86 3.33l-3.37 5.71a2.43 2.43 0 0 1-3.33.86l-20.95-12.37a2.43 2.43 0 0 1-.86-3.33l3.37-5.71c.69-1.16 2.18-1.55 3.33-.86z"></path><path fill="#cce9ff" d="m454.62 572.37 36.89 21.78c.49.29.65.92.36 1.41-.29.49-.92.65-1.41.36l-36.89-21.78c-.49-.29-.65-.92-.36-1.41.28-.49.92-.65 1.41-.36zM451.21 578.15l36.89 21.78c.49.29.65.92.36 1.41-.29.49-.92.65-1.41.36l-36.89-21.78c-.49-.29-.65-.92-.36-1.41.28-.49.92-.65 1.41-.36zM447.8 583.92l36.89 21.78c.49.29.65.92.36 1.41-.29.49-.92.65-1.41.36l-36.89-21.78c-.49-.29-.65-.92-.36-1.41.28-.49.92-.65 1.41-.36zM444.39 589.7l36.89 21.78c.49.29.65.92.36 1.41-.29.49-.92.65-1.41.36l-36.89-21.78c-.49-.29-.65-.92-.36-1.41.28-.49.92-.65 1.41-.36zM440.98 595.47l36.89 21.78c.49.29.65.92.36 1.41-.29.49-.92.65-1.41.36l-36.89-21.78c-.49-.29-.65-.92-.36-1.41.28-.48.92-.65 1.41-.36zM437.57 601.25l36.89 21.78c.49.29.65.92.36 1.41-.29.49-.92.65-1.41.36l-36.89-21.78c-.49-.29-.65-.92-.36-1.41.28-.49.92-.65 1.41-.36zM433.87 606.85l24.96 14.74c.33.2.37.75.08 1.24s-.79.73-1.13.53l-24.96-14.74c-.33-.2-.37-.75-.08-1.24.29-.48.8-.72 1.13-.53z"></path><circle cx="461.43" cy="635.24" r="6.04" fill="#ffbe55"></circle><path fill="#ffbe55" d="m407.34 918.53 12.23 17.62c2.71 3.9 6.18 7.21 10.2 9.72l15.74 9.82h-39.36l-12.79-15.02v15.02h-5.84v-37.16h19.82z"></path><path fill="#f7c39f" d="M425.8 732.64c-1.85 6.64-18.46 185.22-18.46 185.22s-20.31 5.81-19.69 0-20.92-148.67 6.77-185.22c19.07-14.95 31.38 0 31.38 0z"></path><path fill="#ffbe55" d="m397.18 918.53 12.23 17.62c2.71 3.9 6.18 7.21 10.2 9.72l15.74 9.82h-39.36l-12.79-15.02v15.02h-5.84v-37.16h19.82z"></path><path fill="#fcd2b1" d="M415.64 732.64c-1.85 6.64-18.46 185.22-18.46 185.22s-20.31 5.81-19.69 0-20.92-148.67 6.77-185.22c19.07-14.95 31.38 0 31.38 0z"></path><path fill="#0e538c" d="M385.61 570.81c-14.26 15.74-34.87 31.69-19.1 79.73 6.99 21.31 7.82 44.15 2.83 66.01-6.37 27.93-12.03 62.21-12.03 62.21l71.61 2.01s22.5-166.13 5.67-209.96c-20.89-7.77-48.98 0-48.98 0z"></path><path fill="#2a94f4" d="M413.46 433.1c8.4 12.21 36.91 55.62 35.28 61.67-1.94 7.22-14.17 76.04-14.17 76.04H385.6s6.18-15.77 1.02-26.28c-5.16-10.51-46.24-84.63 5.84-122.91 8.98 3.42 21 11.48 21 11.48z"></path><path fill="#fcd2b1" d="M416.03 414.56c-1.12 8.7-2.52 15.43 1.4 28.06-11.5-5.05-24.13-15.43-24.97-19.36 3.93-9.26 8.14-15.26 4.77-23.2 5.61.75 18.8 14.5 18.8 14.5z"></path><path fill="#ffe3ca" d="M435 358c5 17 3.76 65.59-9.39 63.56-13.15-2.02-28.82-8.6-34.89-25.28-6.06-16.68 5.63-67.46 44.28-38.28z"></path><ellipse cx="386.63" cy="393.15" fill="#ffe3ca" rx="4.86" ry="7.77" transform="rotate(-30 386.602 393.16)"></ellipse><path fill="#0e538c" d="M378.65 393.83c29.83-8.09 53.47-23.84 59.07-38.5 5.59-14.66-32.33-22.25-39.91-13.65s-34.73 34.42-19.16 52.15z"></path><circle cx="390.62" cy="400.06" r="5.01" fill="#ffbe55"></circle><path fill="#34a2f4" d="M395.63 430.77c-11.08-2.37-25.56 20.98-24.16 25.87 1.4 4.89 37.27 139.65 147.34 130.56.35-1.4 0-11.18 0-11.18s-91.88 12.31-123.18-145.25z"></path><path fill="#ffbe55" d="M310.56 199.86h-68.2c-31.78 0-57.55 25.77-57.55 57.55 0 31.78 25.77 57.55 57.55 57.55h21.51c16.87 12.57 56.48 41.97 54.93 39.84-1.35-1.86-15.51-25.29-24.27-39.84h16.03c31.78 0 57.55-25.77 57.55-57.55 0-31.78-25.77-57.55-57.55-57.55zM460.93 145.92c0-34.17-27.7-61.87-61.87-61.87s-61.87 27.7-61.87 61.87 27.7 61.87 61.87 61.87c3.86 0 7.63-.37 11.29-1.05l-6.74 32.17 40.28-50.36-.03.01c10.58-11.1 17.07-26.11 17.07-42.64z"></path><path fill="#fcd2b1" d="M517.95 578c.91-.27 5.71-.62 6.27-1.4.56-.78 2.58-6.61 4.26-6.94 1.68-.34 3.14 9.39 0 14.49-3.02 3.99-5.82 1.97-6.72 2.08s-5.38-.11-5.38-.11l1.57-8.12z"></path><path fill="#b6e7ff" d="M960.11 975.05c19.86 0 28.24-15.86 31.55-32.69 3.73-18.98.99-39.19.99-39.19h-65.07s-.1.77-.24 2.15c-1.22 11.95-5.14 69.73 32.77 69.73z"></path><path fill="#85ddff" d="M927.57 903.18c0 1.42 14.57 2.57 32.54 2.57s32.54-1.15 32.54-2.57-14.57-2.57-32.54-2.57c-17.97-.01-32.54 1.14-32.54 2.57z"></path><path fill="#2a94f4" d="M872 722.77s34.32 52.21 54.91 84.08c20.59 31.87 25.98 38.48 28.43 48.78 2.45 10.29 4.66 48.29 4.66 48.29h1.52s-.53-32.25-2.39-43.1c-1.79-10.49.13-14.26 1.6-25.29 1.47-11.03 3.43-28.68-7.72-40.94-11.15-12.26-8.21-24.27-12.13-32.35-3.92-8.09-34.32-17.89-38.24-26.23-3.92-8.34-21.08-13.49-30.64-13.24z"></path><path fill="#41aaf7" d="M872 722.77s10.79 12.26 18.14 16.42c7.35 4.17 10.79.49 16.42 10.54 5.64 10.05 5.85 14.46 11.02 19.61 5.16 5.15 11.29 5.39 11.78 16.67.49 11.27-2.45 20.83-2.45 20.83s-52.7-81.37-54.91-84.07z"></path><path fill="#2a94f4" d="M957.28 903.91h-1.54s-.46-10.44-4.61-15.51c-2.67-3.27-14.03-6.98-25.26-11.43-6.18-2.45-12.33-5.12-16.96-8.07-13.06-8.29-25.49-35.01-26.56-39.77-.38-1.66-.54-2.66-.53-3.35v-.02c.03-1.28.66-1.47 1.76-2.76.53-.62 2.12-.41 4.06.18 5.63 1.72 10.38 5.57 13.32 10.67 2.72 4.71 7.07 10.6 12.4 12.03 9.21 2.46 8.45 3.99 11.85 13.36 3.39 9.37 11.96 10.9 22.7 21.96 10.75 11.04 9.37 22.71 9.37 22.71z"></path><path fill="#41aaf7" d="M925.87 876.97c-6.18-2.45-12.33-5.12-16.96-8.07-13.06-8.29-25.49-35.01-26.56-39.77-.38-1.66-.54-2.66-.53-3.35.04.31.64 4.54 7.44 7.35 7.06 2.91 8.44 2.91 9.36 7.37.92 4.45 1.7 9.21 5.38 10.13 3.69.92 5.99-3.22 8.9 3.53 2.92 6.75 4.31 9.06 6.99 9.98 2.68.92 4.72-.46 5.32 4.76.36 3.19.56 6.21.66 8.07z"></path><path fill="#2a94f4" d="M968.56 903.91h1.82s3.56-64.64 8.47-70.64c3.16-3.87 13.6-10.82 26.91-16.09 7.32-2.9 14.6-6.07 20.09-9.56 15.46-9.82 30.19-41.47 31.46-47.11.45-1.96.64-3.15.63-3.97v-.02c-.03-1.52-.79-1.75-2.08-3.27-.62-.74-2.51-.48-4.81.22-6.67 2.03-12.29 6.6-15.78 12.63-3.22 5.58-8.38 12.56-14.69 14.24-10.91 2.91-10.01 4.73-14.03 15.82-4.02 11.1-14.16 12.91-26.89 26-12.74 13.11-11.1 81.75-11.1 81.75z"></path><path fill="#41aaf7" d="M1005.76 817.19c7.32-2.9 14.6-6.07 20.09-9.56 15.46-9.82 30.19-41.47 31.46-47.11.45-1.96.64-3.15.63-3.97-.04.37-.76 5.38-8.82 8.71-8.36 3.45-10 3.45-11.09 8.73-1.09 5.27-2.01 10.91-6.37 12-4.36 1.09-7.09-3.82-10.54 4.18-3.46 8-5.11 10.73-8.28 11.82-3.18 1.09-5.59-.55-6.3 5.64-.42 3.77-.66 7.35-.78 9.56z"></path><path fill="#cce9ff" d="M960.11 975.05c19.86 0 28.24-15.86 31.55-32.69-19.47-7.38-43.99-19.21-64.33-37.04-1.21 11.95-5.13 69.73 32.78 69.73z"></path><path fill="#b6e7ff" d="M123.25 966.93c-14.09 0-20.04-11.25-22.38-23.19-2.64-13.47-.7-27.8-.7-27.8h46.17s.07.55.17 1.52c.86 8.48 3.63 49.47-23.26 49.47z"></path><path fill="#85ddff" d="M146.33 915.94c0 1.01-10.34 1.83-23.09 1.83s-23.09-.82-23.09-1.83 10.34-1.83 23.09-1.83c12.76 0 23.09.82 23.09 1.83z"></path><path fill="#2a94f4" d="M65.77 787.95s24.35 37.04 38.95 59.65c14.61 22.61 18.43 27.3 20.17 34.61 1.74 7.3 3.3 34.26 3.3 34.26h1.91s1.22-22.78-1.04-30.26-1.39-10.43-.35-18.26c1.04-7.83 2.43-20.35-5.48-29.04-7.91-8.69-5.83-17.22-8.61-22.95-2.78-5.74-24.35-12.69-27.13-18.61-2.76-5.92-14.93-9.57-21.72-9.4z"></path><path fill="#41aaf7" d="M65.77 787.95s7.65 8.7 12.87 11.65c5.22 2.96 7.65.35 11.65 7.48 4 7.13 4.15 10.26 7.82 13.91 3.66 3.65 8.01 3.83 8.36 11.83.35 8-1.74 14.78-1.74 14.78s-37.39-57.74-38.96-59.65z"></path><path fill="#2a94f4" d="M122.47 916.46h-1.74s-.52-11.82-5.22-17.56c-3.03-3.7-15.89-7.91-28.61-12.95-7-2.78-13.96-5.8-19.21-9.14-14.78-9.39-28.87-39.65-30.08-45.04-.43-1.88-.62-3.02-.61-3.8v-.02c.03-1.45.75-1.67 1.99-3.13.6-.71 2.4-.46 4.6.21 6.38 1.94 11.75 6.31 15.09 12.08 3.08 5.34 8.01 12.01 14.05 13.62 10.43 2.79 9.57 4.52 13.42 15.13 3.84 10.61 13.54 12.34 25.71 24.86 12.17 12.52 10.61 25.74 10.61 25.74z"></path><path fill="#41aaf7" d="M86.9 885.95c-7-2.78-13.96-5.8-19.21-9.14-14.78-9.39-28.87-39.65-30.08-45.04-.43-1.88-.62-3.02-.61-3.8.04.36.73 5.14 8.43 8.33 7.99 3.3 9.56 3.3 10.6 8.35 1.04 5.04 1.92 10.43 6.09 11.48 4.17 1.04 6.78-3.65 10.08 4 3.31 7.65 4.88 10.26 7.92 11.3 3.04 1.04 5.34-.52 6.02 5.39.41 3.6.64 7.03.76 9.13z"></path><path fill="#cce9ff" d="M123.25 966.93c-14.09 0-20.04-11.25-22.38-23.19 13.81-5.24 31.21-13.63 45.64-26.28.86 8.48 3.63 49.47-23.26 49.47z"></path></svg>